<svg id="Layer_1" data-name="Layer 1" xmlns="http://www.w3.org/2000/svg" viewBox="0 0 84 84">
  <defs>
    <style>
      .cls-1, .cls-2 {
        fill: #fff;
      }

      .cls-2 {
        stroke: #000;
        stroke-miterlimit: 10;
        stroke-width: 5px;
      }
    </style>
  </defs>
  <title>checkbox</title>
  <g>
    <g>
      <rect class="cls-1" x="2.5" y="2.5" width="79" height="79" rx="4.01"/>
      <path d="M86.49,14A1.52,1.52,0,0,1,88,15.51v71A1.52,1.52,0,0,1,86.49,88h-71A1.52,1.52,0,0,1,14,86.49v-71A1.52,1.52,0,0,1,15.51,14h71m0-5h-71A6.5,6.5,0,0,0,9,15.51v71A6.5,6.5,0,0,0,15.51,93h71A6.5,6.5,0,0,0,93,86.49v-71A6.5,6.5,0,0,0,86.49,9Z" transform="translate(-9 -9)"/>
    </g>
    <polyline class="cls-2" points="17.5 45.5 28.5 60.5 65.5 29.5"/>
  </g>
</svg>
