<?xml version="1.0" encoding="utf-8"?>
<!-- Generator: Adobe Illustrator 24.0.1, SVG Export Plug-In . SVG Version: 6.00 Build 0)  -->
<svg version="1.1" id="Layer_1" xmlns="http://www.w3.org/2000/svg" xmlns:xlink="http://www.w3.org/1999/xlink" x="0px" y="0px"
	 viewBox="0 0 200 100" style="enable-background:new 0 0 200 100;" xml:space="preserve">
<style type="text/css">
	.st0{fill:#FBEDEC;}
	.st1{fill:#DE4947;}
	.st2{fill:#FBEDEC;stroke:#DE4947;stroke-width:3.3782;stroke-miterlimit:10;}
	.st3{fill:#EBF1FA;}
	.st4{fill:#3D71D5;}
	.st5{fill:#EBF1FA;stroke:#3D71D5;stroke-width:3.3782;stroke-miterlimit:10;}
	.st6{fill:#FDF5E7;}
	.st7{fill:#F49B16;}
	.st8{fill:#FDF5E7;stroke:#F49B16;stroke-width:3.3782;stroke-miterlimit:10;}
</style>
<g>
	<g>
		<g>
			<path class="st0" d="M12.5,78.4c-2.7,0-4.8-2.2-4.8-4.8V29.8c0-2.7,2.2-4.8,4.8-4.8h43.7c2.7,0,4.8,2.2,4.8,4.8v43.7
				c0,2.7-2.2,4.8-4.8,4.8H12.5z"/>
			<path class="st1" d="M56.3,26.7c1.7,0,3.1,1.4,3.1,3.1v43.7c0,1.7-1.4,3.1-3.1,3.1H12.5c-1.7,0-3.1-1.4-3.1-3.1V29.8
				c0-1.7,1.4-3.1,3.1-3.1H56.3 M56.3,23.3H12.5c-3.6,0-6.5,2.9-6.5,6.5v43.7c0,3.6,2.9,6.5,6.5,6.5h43.7c3.6,0,6.5-2.9,6.5-6.5
				V29.8C62.8,26.2,59.8,23.3,56.3,23.3L56.3,23.3z"/>
		</g>
		<polyline class="st2" points="17.8,54 25.3,64.2 50.3,43.2 		"/>
	</g>
</g>
<g>
	<g>
		<g>
			<path class="st3" d="M145.8,78.4c-2.7,0-4.8-2.2-4.8-4.8V29.8c0-2.7,2.2-4.8,4.8-4.8h43.7c2.7,0,4.8,2.2,4.8,4.8v43.7
				c0,2.7-2.2,4.8-4.8,4.8H145.8z"/>
			<path class="st4" d="M189.5,26.7c1.7,0,3.1,1.4,3.1,3.1v43.7c0,1.7-1.4,3.1-3.1,3.1h-43.7c-1.7,0-3.1-1.4-3.1-3.1V29.8
				c0-1.7,1.4-3.1,3.1-3.1H189.5 M189.5,23.3h-43.7c-3.6,0-6.5,2.9-6.5,6.5v43.7c0,3.6,2.9,6.5,6.5,6.5h43.7c3.6,0,6.5-2.9,6.5-6.5
				V29.8C196,26.2,193.1,23.3,189.5,23.3L189.5,23.3z"/>
		</g>
		<polyline class="st5" points="151.1,54 158.5,64.2 183.5,43.2 		"/>
	</g>
</g>
<g>
	<g>
		<g>
			<path class="st6" d="M79.8,78.4c-2.7,0-4.8-2.2-4.8-4.8V29.8c0-2.7,2.2-4.8,4.8-4.8h43.7c2.7,0,4.8,2.2,4.8,4.8v43.7
				c0,2.7-2.2,4.8-4.8,4.8H79.8z"/>
			<path class="st7" d="M123.6,26.7c1.7,0,3.1,1.4,3.1,3.1v43.7c0,1.7-1.4,3.1-3.1,3.1H79.8c-1.7,0-3.1-1.4-3.1-3.1V29.8
				c0-1.7,1.4-3.1,3.1-3.1H123.6 M123.6,23.3H79.8c-3.6,0-6.5,2.9-6.5,6.5v43.7c0,3.6,2.9,6.5,6.5,6.5h43.7c3.6,0,6.5-2.9,6.5-6.5
				V29.8C130.1,26.2,127.2,23.3,123.6,23.3L123.6,23.3z"/>
		</g>
		<polyline class="st8" points="85.1,54 92.6,64.2 117.6,43.2 		"/>
	</g>
</g>
</svg>
